# xmcd
#
# Track frame offsets: 
#        150
#        22230
#        25962
#        37137
#        58125
#        77805
#        99975
#        120105
#        137580
#        153150
#
# Disc length: 2594 seconds
#
# Revision: 0
# Processed by: cddbd v1.5.1PL2 Copyright (c) Steve Scherf et al.
# Submitted via: ExactAudioCopy v0.95b3
#
DISCID=7a0a200a
DTITLE=Various Artist - in_Deep02
DYEAR=2006
DGENRE=Chillout
TTITLE0=Nu-NRG - Eclisse
TTITLE1=Kasabian - Pinch Roller
TTITLE2=Simon and Garfunkel - El Condor Pasa [If I Could]
TTITLE3=Sonic Adventure Project - Waters In Motion
TTITLE4=Ypey - Without You
TTITLE5=Miro - The Cure (Original Mix)
TTITLE6=Susumu Yokota - King Dragonfly
TTITLE7=The Chemical Brothers - Chico's Groove
TTITLE8=Smokee - Dual Power
TTITLE9=Dj. Shadow - Blood On The Motorway
EXTD=
EXTT0=
EXTT1=
EXTT2=
EXTT3=
EXTT4=
EXTT5=
EXTT6=
EXTT7=
EXTT8=
EXTT9=
PLAYORDER=
